<?xml version="1.0" standalone="no"?>
<!DOCTYPE svg PUBLIC "-//W3C//DTD SVG 20010904//EN"
 "http://www.w3.org/TR/2001/REC-SVG-20010904/DTD/svg10.dtd">
<svg version="1.0" xmlns="http://www.w3.org/2000/svg"
 width="510.000000pt" height="720.000000pt" viewBox="0 0 510.000000 720.000000"
 preserveAspectRatio="xMidYMid meet">
<metadata>
Created by potrace 1.16, written by Peter Selinger 2001-2019
</metadata>
<g transform="translate(0.000000,720.000000) scale(0.100000,-0.100000)"
fill="#000000" stroke="none">
<path d="M3040 7167 c-17 -17 -38 -43 -45 -57 -7 -14 -41 -166 -75 -337 l-62
-310 23 -52 c24 -57 96 -122 133 -120 17 1 16 2 -6 9 -27 8 -88 50 -73 50 5 0
17 -8 27 -17 13 -11 42 -19 84 -21 57 -4 70 -1 107 22 l42 27 -30 -26 c-16
-14 -43 -29 -60 -34 -24 -7 -25 -9 -8 -10 23 -1 104 55 111 78 3 9 0 11 -8 6
-9 -5 -11 -4 -6 4 4 6 11 9 16 6 5 -3 13 3 19 13 12 23 45 182 38 188 -2 3
-10 -26 -17 -63 -7 -37 -17 -77 -22 -88 -11 -25 -13 -40 57 315 48 237 56 291
48 322 -6 21 -6 35 -2 32 5 -3 9 -13 10 -22 0 -9 3 -12 5 -5 8 17 -21 67 -55
95 -27 23 -38 25 -124 25 -93 1 -96 0 -127 -30z"/>
<path d="M1238 7050 c-32 -9 -98 -58 -98 -72 0 -6 18 6 39 25 52 47 111 57
172 29 24 -10 53 -30 64 -43 18 -21 16 -20 -13 4 -70 57 -166 55 -228 -4 -17
-16 -33 -27 -36 -23 -12 11 -38 -55 -38 -97 0 -27 28 -118 80 -262 45 -122 84
-224 87 -227 3 -3 3 4 -1 15 -5 13 -4 17 3 10 13 -13 61 -146 50 -140 -4 3
-15 28 -24 56 -9 28 -19 48 -22 46 -8 -9 42 -122 54 -122 6 0 15 -4 20 -9 5
-5 2 -6 -6 -1 -31 18 -2 -22 36 -48 76 -54 160 -46 228 21 42 42 65 87 65 131
0 29 -79 265 -86 258 -2 -2 14 -55 37 -118 42 -117 48 -184 20 -212 -10 -9
-10 -5 -2 16 6 16 11 41 11 57 0 24 -52 184 -99 303 -6 15 -8 27 -5 27 3 0 10
-14 16 -31 6 -16 12 -28 15 -26 4 5 -99 292 -120 333 -21 40 -65 80 -109 98
-41 17 -68 19 -110 6z"/>
<path d="M4718 6223 c-409 -359 -428 -379 -428 -458 0 -75 72 -164 150 -185
48 -13 103 -1 146 32 65 50 503 440 507 452 3 7 5 55 5 107 l0 94 -40 38 c-21
20 -44 37 -50 37 -7 0 3 -11 22 -25 19 -14 30 -25 25 -25 -5 0 -16 6 -24 14
-29 25 -91 36 -138 25 -34 -9 -79 -43 -218 -166 -96 -85 -175 -152 -175 -149
0 6 317 286 350 309 13 9 19 17 13 17 -6 0 -71 -53 -145 -117z"/>
<path d="M95 6048 c-11 -6 -37 -26 -57 -46 l-36 -34 0 -98 c0 -88 2 -100 21
-117 21 -18 21 -18 7 2 -15 20 -14 20 8 1 23 -20 30 -32 12 -21 -19 12 -10
-12 12 -31 22 -19 23 -19 8 1 -15 20 -14 20 8 1 23 -20 30 -32 12 -21 -19 12
-10 -12 12 -31 22 -19 23 -19 8 1 -11 15 -7 14 13 -4 28 -25 38 -43 12 -21
-24 20 -17 -5 7 -26 13 -12 18 -13 13 -4 -5 9 0 8 13 -4 25 -21 31 -36 7 -16
-27 22 -16 -6 12 -31 20 -18 24 -19 13 -4 -15 20 -14 20 8 1 23 -20 30 -32 12
-21 -19 12 -10 -12 12 -31 22 -19 23 -19 8 1 -11 15 -7 14 13 -4 28 -25 38
-43 12 -21 -27 22 -16 -6 12 -31 20 -18 24 -19 13 -4 -15 20 -14 20 8 1 23
-20 30 -32 12 -21 -19 12 -10 -12 12 -31 22 -19 23 -19 8 1 -11 15 -7 14 13
-4 28 -25 38 -43 12 -21 -24 20 -17 -5 7 -26 13 -12 18 -13 13 -4 -5 9 0 8 13
-4 25 -21 31 -36 7 -16 -31 26 -13 -7 23 -42 44 -43 98 -68 144 -67 28 1 26 2
-13 9 -56 10 -97 30 -124 61 l-20 24 25 -22 c32 -28 91 -53 125 -53 34 0 93
25 125 53 l25 22 -23 -27 c-13 -14 -37 -32 -53 -39 -16 -6 -28 -14 -25 -16 9
-9 64 27 94 61 30 35 57 106 49 129 -2 7 -7 -7 -11 -30 -4 -24 -11 -45 -16
-48 -5 -3 -4 11 2 31 9 33 8 48 -7 101 -3 10 2 5 10 -12 l16 -30 -6 30 c-4 17
-13 37 -22 45 -14 13 -15 13 -7 0 7 -13 6 -13 -9 -1 -18 15 -23 26 -7 16 19
-12 10 12 -12 31 -22 19 -23 19 -8 -1 15 -20 14 -20 -8 -1 -23 20 -30 32 -12
21 6 -3 10 -2 10 3 0 12 -25 33 -32 27 -3 -3 -13 5 -24 17 -15 18 -16 20 -1 9
28 -22 20 3 -10 30 -20 18 -24 19 -13 4 15 -20 14 -20 -8 -1 -23 20 -30 32
-12 21 19 -12 10 12 -12 31 -22 19 -23 19 -8 -1 15 -20 14 -20 -8 -1 -23 20
-30 32 -12 21 19 -12 10 12 -12 31 -22 19 -23 19 -8 -1 11 -15 7 -14 -13 4
-28 25 -38 43 -12 21 24 -20 17 5 -7 26 -13 12 -18 13 -13 4 5 -9 0 -8 -13 4
-25 21 -31 36 -7 16 27 -22 16 6 -12 31 -20 18 -24 19 -13 4 15 -20 14 -20 -8
-1 -23 20 -30 32 -12 21 21 -13 9 13 -17 36 -20 18 -24 19 -13 4 15 -20 14
-20 -8 -1 -23 20 -30 32 -12 21 6 -3 10 -2 10 2 0 12 -90 98 -117 112 -28 14
-112 14 -138 -1z"/>
<path d="M2385 6033 c-197 -14 -462 -71 -634 -138 -196 -76 -401 -193 -551
-314 -64 -51 -64 -51 -15 -6 104 97 352 244 550 328 22 9 29 14 15 11 -46 -10
-290 -133 -378 -190 -48 -31 -129 -90 -180 -131 -125 -102 -336 -326 -269
-287 6 4 3 -2 -7 -14 -23 -26 -34 -29 -15 -4 11 14 10 13 -9 -2 -22 -19 -31
-43 -12 -31 16 10 11 -1 -7 -16 -15 -12 -16 -12 -8 1 8 13 7 13 -8 1 -20 -16
-23 -36 -4 -25 7 4 9 3 4 -2 -5 -5 -14 -9 -20 -9 -5 0 -12 -6 -15 -14 -3 -9 0
-11 8 -6 9 5 11 4 6 -4 -4 -6 -11 -9 -16 -6 -4 3 -18 -10 -29 -29 -24 -37 -27
-51 -9 -40 7 4 8 3 4 -5 -4 -6 -11 -9 -16 -6 -12 8 -53 -73 -44 -87 4 -7 3 -8
-4 -4 -10 6 -72 -111 -87 -166 -5 -21 -5 -21 9 2 9 14 15 19 16 13 0 -7 -9
-22 -21 -34 -11 -11 -32 -52 -45 -91 -29 -81 -74 -264 -73 -293 0 -11 11 25
24 80 27 119 55 218 60 213 2 -2 -10 -55 -26 -118 -114 -436 -96 -921 50
-1299 11 -30 19 -57 17 -59 -3 -2 -14 24 -27 57 -12 34 -24 60 -26 57 -13 -13
132 -320 147 -311 5 3 12 0 16 -6 4 -8 3 -9 -4 -5 -15 9 -15 1 -1 -25 5 -11
14 -17 19 -14 5 3 12 0 16 -6 5 -8 3 -9 -6 -4 -8 5 -11 3 -8 -6 3 -8 10 -14
16 -14 5 0 14 -4 19 -9 5 -5 2 -6 -6 -1 -9 5 -12 3 -9 -6 3 -8 10 -14 16 -14
5 0 14 -4 19 -9 5 -5 2 -6 -6 -1 -9 5 -12 3 -9 -6 3 -8 10 -14 16 -14 6 0 17
-7 24 -15 11 -12 11 -12 -4 -1 -11 8 -18 9 -18 3 0 -11 19 -27 32 -27 3 0 10
-4 15 -9 5 -5 3 -6 -4 -2 -7 4 -13 3 -13 -2 0 -12 25 -33 32 -27 3 3 11 -2 19
-12 9 -11 10 -14 1 -9 -84 51 225 -261 363 -365 118 -90 220 -159 330 -224 92
-54 255 -138 255 -130 0 3 -39 25 -87 49 -161 80 -325 184 -475 298 -42 32
-80 63 -83 69 -4 5 31 -19 77 -54 317 -244 723 -447 1268 -632 176 -60 176
-59 -30 -70 -63 -3 -140 -8 -170 -10 -30 -3 -147 -9 -260 -15 -527 -27 -768
-53 -843 -89 -23 -12 -33 -14 -27 -5 10 12 73 36 125 47 19 5 19 5 -1 6 -35 2
-108 -28 -147 -60 -34 -28 -53 -60 -25 -43 7 4 8 3 4 -5 -4 -6 -12 -9 -17 -5
-13 8 -39 -58 -39 -101 0 -43 26 -109 39 -101 5 4 13 1 17 -5 4 -8 3 -9 -4 -5
-7 4 -12 3 -12 -3 0 -30 155 -112 209 -111 9 1 -16 11 -56 24 -63 21 -143 66
-116 66 6 0 16 -6 23 -14 39 -48 341 -106 1055 -201 187 -25 345 -47 350 -49
6 -1 -51 -6 -125 -10 -210 -11 -521 -34 -675 -52 -351 -38 -554 -100 -636
-192 -23 -26 -37 -38 -31 -27 20 38 77 84 142 115 36 17 54 28 40 24 -81 -21
-183 -104 -209 -170 -7 -17 -11 -49 -8 -70 l4 -39 1 45 c3 74 17 74 17 0 0
-37 -3 -63 -7 -57 -13 21 -8 -3 6 -32 33 -64 124 -124 204 -135 34 -5 34 -5
-8 7 -71 21 -115 45 -146 80 l-29 32 30 -26 c65 -58 139 -80 360 -109 127 -16
419 -45 665 -65 179 -14 424 -36 500 -45 47 -5 94 -10 105 -10 15 -1 13 -4
-10 -14 -70 -30 -116 -122 -97 -195 5 -23 6 -38 1 -35 -5 3 -9 13 -10 22 0 10
-3 12 -5 5 -7 -16 15 -55 26 -48 5 3 12 0 16 -6 4 -8 3 -9 -4 -5 -22 13 -12
-10 14 -35 24 -23 33 -24 155 -26 72 0 142 3 157 8 21 6 15 7 -23 4 -56 -5
-60 -6 128 41 174 43 279 84 348 136 30 23 47 33 39 23 -8 -10 -42 -36 -74
-57 -33 -21 -55 -38 -50 -38 24 0 154 103 154 123 0 4 -5 5 -12 1 -7 -4 -8 -3
-4 5 4 6 12 9 17 5 15 -9 39 60 39 111 0 45 -28 116 -51 131 -8 5 -9 3 -4 -7
5 -8 -13 5 -39 28 -95 84 -240 118 -756 178 -69 8 -97 13 -70 14 25 1 83 8
130 16 l85 14 -85 -5 c-47 -3 -112 -10 -145 -15 -33 -5 -80 -8 -105 -8 l-45 1
50 9 c28 4 127 15 220 24 293 28 559 80 660 130 38 18 45 19 27 5 -29 -24
-124 -55 -259 -85 -59 -13 -99 -24 -88 -24 29 -1 190 36 263 60 106 35 213
142 199 197 -4 13 -5 12 -6 -4 0 -11 -8 -29 -17 -40 -15 -18 -15 -18 -5 3 14
28 14 113 1 150 -9 26 -9 27 5 9 8 -11 15 -29 16 -40 0 -12 4 -30 9 -41 7 -14
8 -8 3 20 -7 48 -31 98 -43 90 -5 -3 -12 0 -16 6 -4 8 -3 9 4 5 7 -4 12 -3 12
3 0 17 -63 63 -126 93 -62 29 -240 79 -278 77 -11 0 17 -9 64 -20 147 -33 260
-77 290 -114 8 -10 -2 -6 -24 8 -88 60 -313 115 -686 166 l-125 18 80 7 c400
37 563 61 645 97 25 11 63 34 85 51 27 22 33 24 20 9 -29 -34 -99 -72 -169
-93 -45 -13 -51 -17 -21 -12 55 8 134 45 178 84 39 34 73 87 63 98 -3 3 -6 1
-6 -4 0 -6 -7 -19 -15 -30 -12 -16 -12 -12 1 21 11 26 15 58 12 92 -6 70 5 57
13 -15 l6 -57 2 48 c1 51 -22 122 -38 113 -5 -3 -15 2 -22 12 -13 15 -12 16 4
3 25 -20 21 2 -6 27 -24 23 -43 30 -32 12 4 -6 -10 1 -30 14 -41 28 -142 62
-400 135 -184 52 -359 109 -339 110 6 1 31 -6 55 -15 24 -8 161 -49 304 -90
318 -91 304 -87 285 -76 -8 6 -91 31 -185 57 -93 26 -234 67 -313 91 -79 25
-147 42 -152 39 -13 -8 -140 29 -271 79 -516 195 -872 403 -1137 660 -264 256
-407 531 -458 878 -23 160 -15 478 16 633 133 664 590 1117 1272 1261 164 34
418 43 559 20 543 -89 1033 -524 1219 -1083 72 -218 84 -297 85 -558 0 -201
-3 -244 -23 -343 -66 -324 -209 -602 -430 -834 -144 -152 -327 -290 -497 -376
-89 -45 -117 -67 -141 -114 -16 -31 -16 -38 0 -167 6 -53 113 -110 179 -95 33
7 167 71 167 79 0 3 -30 -10 -67 -29 -38 -18 -82 -37 -100 -40 -44 -10 -102 8
-143 44 l-35 31 48 -33 c92 -62 175 -39 427 122 52 33 84 51 70 39 -14 -12
-62 -44 -107 -72 -89 -54 -115 -77 -35 -32 69 40 196 130 282 199 81 65 310
293 310 309 0 5 -8 3 -17 -4 -15 -11 -14 -10 1 9 21 24 31 29 20 10 -4 -7 2
-4 14 6 26 23 30 44 5 25 -15 -11 -14 -10 1 9 21 24 32 29 20 10 -5 -9 -2 -9
9 1 20 16 23 36 5 25 -9 -5 -9 -2 1 9 16 20 26 23 15 5 -5 -9 -2 -9 9 1 20 16
23 36 5 25 -8 -4 -10 -3 -5 2 5 5 14 9 19 9 6 0 13 6 16 14 3 9 0 11 -9 6 -8
-5 -11 -4 -6 1 5 5 14 9 19 9 6 0 13 6 16 14 3 9 0 11 -8 6 -9 -5 -11 -4 -6 4
4 6 11 9 16 6 5 -3 14 3 19 14 14 26 14 34 -1 25 -8 -4 -10 -3 -5 2 5 5 14 9
20 9 19 0 143 259 186 390 41 123 85 315 79 344 -2 9 -10 -20 -17 -64 -15 -93
-68 -286 -82 -300 -5 -5 -3 9 5 32 8 23 26 88 40 145 79 326 79 697 0 1012
-14 54 -23 100 -21 102 5 5 43 -136 62 -231 13 -65 14 -66 8 -15 -6 64 -40
201 -79 315 -55 166 -193 443 -214 430 -5 -3 -12 0 -16 6 -5 8 -3 9 6 4 8 -5
11 -3 8 6 -3 8 -10 14 -15 14 -6 0 -15 4 -20 9 -5 5 -2 6 6 1 9 -5 12 -3 9 6
-3 8 -10 14 -15 14 -6 0 -15 4 -20 9 -5 5 -2 6 6 1 9 -5 12 -3 9 6 -3 8 -10
14 -15 14 -6 0 -15 4 -20 9 -5 5 -3 6 5 2 6 -4 12 -4 12 0 0 9 -109 144 -117
144 -3 0 2 -10 13 -22 17 -21 16 -21 -9 1 -27 24 -36 38 -17 26 6 -3 10 -2 10
3 0 16 -231 234 -312 295 -42 31 -114 81 -160 109 -81 50 -257 138 -274 138
-5 -1 36 -22 91 -49 158 -75 391 -230 445 -296 8 -10 -25 14 -75 54 -347 279
-788 423 -1210 394z"/>
</g>
</svg>
